<?xml version="1.0" encoding="UTF-8"?>
<svg xmlns="http://www.w3.org/2000/svg" width="64" height="64" viewBox="0 0 64 64" fill="none">
  <path d="M0 32C0 49.6731 14.3269 64 32 64C49.6731 64 64 49.6731 64 32C64 14.3269 49.6731 0 32 0C14.3269 0 0 14.3269 0 32Z" fill="white"></path>
  <path d="M52 32C52 21 43 12 32 12C21 12 12 21 12 32C12 42 19.25 50.25 28.75 51.75V37.75H23.75V32H28.75V27.5C28.75 22.5 31.75 19.75 36.25 19.75C38.5 19.75 40.75 20.25 40.75 20.25V25.25H38.25C35.75 25.25 35 26.75 35 28.25V32H40.5L39.5 37.75H34.75V52C44.75 50.5 52 42 52 32Z" fill="#1877F2"></path>
</svg>
