<?xml version="1.0" encoding="UTF-8"?>
<svg xmlns="http://www.w3.org/2000/svg" width="193" height="60" viewBox="0 0 193 60" fill="none">
  <path d="M5.07955 15.6591C4.32197 15.6591 3.64394 15.517 3.04545 15.233C2.44697 14.9451 1.97159 14.5511 1.61932 14.0511C1.27083 13.5511 1.08523 12.9792 1.0625 12.3352H3.10795C3.14583 12.8125 3.35227 13.2027 3.72727 13.5057C4.10227 13.8049 4.55303 13.9545 5.07955 13.9545C5.49242 13.9545 5.85985 13.8598 6.18182 13.6705C6.50379 13.4811 6.75758 13.2178 6.94318 12.8807C7.12879 12.5436 7.2197 12.1591 7.21591 11.7273C7.2197 11.2879 7.12689 10.8977 6.9375 10.5568C6.74811 10.2159 6.48864 9.94886 6.15909 9.75568C5.82955 9.55871 5.45076 9.46023 5.02273 9.46023C4.67424 9.45644 4.33144 9.52083 3.99432 9.65341C3.6572 9.78598 3.39015 9.96023 3.19318 10.1761L1.28977 9.86364L1.89773 3.86364H8.64773V5.625H3.64205L3.30682 8.71023H3.375C3.59091 8.45644 3.89583 8.24621 4.28977 8.07955C4.68371 7.90909 5.11553 7.82386 5.58523 7.82386C6.28977 7.82386 6.91856 7.99053 7.47159 8.32386C8.02462 8.65341 8.46023 9.10795 8.77841 9.6875C9.09659 10.267 9.25568 10.9299 9.25568 11.6761C9.25568 12.4451 9.07765 13.1307 8.72159 13.733C8.36932 14.3314 7.87879 14.803 7.25 15.1477C6.625 15.4886 5.90152 15.6591 5.07955 15.6591ZM21.5653 7.0625C21.5123 6.56629 21.2888 6.17992 20.8949 5.90341C20.5047 5.62689 19.9972 5.48864 19.3722 5.48864C18.9328 5.48864 18.5559 5.55492 18.2415 5.6875C17.9271 5.82008 17.6866 6 17.5199 6.22727C17.3532 6.45455 17.268 6.71402 17.2642 7.00568C17.2642 7.24811 17.3191 7.45833 17.429 7.63636C17.5426 7.81439 17.696 7.96591 17.8892 8.09091C18.0824 8.21212 18.2964 8.31439 18.5312 8.39773C18.7661 8.48106 19.0028 8.55114 19.2415 8.60795L20.3324 8.88068C20.7718 8.98295 21.1941 9.12121 21.5994 9.29545C22.0085 9.4697 22.3741 9.68939 22.696 9.95455C23.0218 10.2197 23.2794 10.5398 23.4688 10.9148C23.6581 11.2898 23.7528 11.7292 23.7528 12.233C23.7528 12.9148 23.5786 13.5152 23.2301 14.0341C22.8816 14.5492 22.3778 14.9527 21.7188 15.2443C21.0634 15.5322 20.2699 15.6761 19.3381 15.6761C18.4328 15.6761 17.6468 15.536 16.9801 15.2557C16.3172 14.9754 15.7983 14.5663 15.4233 14.0284C15.0521 13.4905 14.8513 12.8352 14.821 12.0625H16.8949C16.9252 12.4678 17.0502 12.8049 17.2699 13.0739C17.4896 13.3428 17.7756 13.5436 18.1278 13.6761C18.4839 13.8087 18.8816 13.875 19.321 13.875C19.7794 13.875 20.1809 13.8068 20.5256 13.6705C20.8741 13.5303 21.1468 13.3371 21.3438 13.0909C21.5407 12.8409 21.6411 12.5492 21.6449 12.2159C21.6411 11.9129 21.5521 11.6629 21.3778 11.4659C21.2036 11.2652 20.9593 11.0985 20.6449 10.9659C20.3343 10.8295 19.9706 10.7083 19.554 10.6023L18.2301 10.2614C17.2718 10.0152 16.5142 9.64205 15.9574 9.14205C15.4044 8.63826 15.1278 7.9697 15.1278 7.13636C15.1278 6.45076 15.3134 5.85038 15.6847 5.33523C16.0597 4.82008 16.5691 4.42045 17.2131 4.13636C17.857 3.84848 18.5862 3.70455 19.4006 3.70455C20.2263 3.70455 20.9498 3.84848 21.571 4.13636C22.196 4.42045 22.6866 4.81629 23.0426 5.32386C23.3987 5.82765 23.5824 6.4072 23.5938 7.0625H21.5653ZM29.8991 6.77273V8.36364H24.8821V6.77273H29.8991ZM26.1207 4.68182H28.1776V12.875C28.1776 13.1515 28.2192 13.3636 28.3026 13.5114C28.3897 13.6553 28.5033 13.7538 28.6435 13.8068C28.7836 13.8598 28.9389 13.8864 29.1094 13.8864C29.2382 13.8864 29.3556 13.8769 29.4616 13.858C29.5715 13.839 29.6548 13.822 29.7116 13.8068L30.0582 15.4148C29.9484 15.4527 29.7912 15.4943 29.5866 15.5398C29.3859 15.5852 29.1397 15.6117 28.848 15.6193C28.3329 15.6345 27.8688 15.5568 27.456 15.3864C27.0431 15.2121 26.7154 14.9432 26.473 14.5795C26.2344 14.2159 26.117 13.7614 26.1207 13.2159V4.68182ZM34.1307 15.6761C33.5777 15.6761 33.0795 15.5777 32.6364 15.3807C32.197 15.1799 31.8485 14.8845 31.5909 14.4943C31.3371 14.1042 31.2102 13.6231 31.2102 13.0511C31.2102 12.5587 31.3011 12.1515 31.483 11.8295C31.6648 11.5076 31.9129 11.25 32.2273 11.0568C32.5417 10.8636 32.8958 10.7178 33.2898 10.6193C33.6875 10.517 34.0985 10.4432 34.5227 10.3977C35.0341 10.3447 35.4489 10.2973 35.767 10.2557C36.0852 10.2102 36.3163 10.142 36.4602 10.0511C36.608 9.95644 36.6818 9.81061 36.6818 9.61364V9.57955C36.6818 9.15152 36.5549 8.82008 36.3011 8.58523C36.0473 8.35038 35.6818 8.23295 35.2045 8.23295C34.7008 8.23295 34.3011 8.3428 34.0057 8.5625C33.714 8.7822 33.517 9.04167 33.4148 9.34091L31.4943 9.06818C31.6458 8.53788 31.8958 8.0947 32.2443 7.73864C32.5928 7.37879 33.0189 7.10985 33.5227 6.93182C34.0265 6.75 34.5833 6.65909 35.1932 6.65909C35.6136 6.65909 36.0322 6.70833 36.4489 6.80682C36.8655 6.9053 37.2462 7.06818 37.5909 7.29545C37.9356 7.51894 38.2121 7.82386 38.4205 8.21023C38.6326 8.59659 38.7386 9.07955 38.7386 9.65909V15.5H36.7614V14.3011H36.6932C36.5682 14.5436 36.392 14.7708 36.1648 14.983C35.9413 15.1913 35.6591 15.3598 35.3182 15.4886C34.9811 15.6136 34.5852 15.6761 34.1307 15.6761ZM34.6648 14.1648C35.0777 14.1648 35.4356 14.0833 35.7386 13.9205C36.0417 13.7538 36.2746 13.5341 36.4375 13.2614C36.6042 12.9886 36.6875 12.6913 36.6875 12.3693V11.3409C36.6231 11.3939 36.5133 11.4432 36.358 11.4886C36.2064 11.5341 36.036 11.5739 35.8466 11.608C35.6572 11.642 35.4697 11.6723 35.2841 11.6989C35.0985 11.7254 34.9375 11.7481 34.8011 11.767C34.4943 11.8087 34.2197 11.8769 33.9773 11.9716C33.7348 12.0663 33.5436 12.1989 33.4034 12.3693C33.2633 12.536 33.1932 12.7519 33.1932 13.017C33.1932 13.3958 33.3314 13.6818 33.608 13.875C33.8845 14.0682 34.2367 14.1648 34.6648 14.1648ZM40.8068 15.5V6.77273H42.8011V8.22727H42.892C43.0511 7.72348 43.3239 7.33523 43.7102 7.0625C44.1004 6.78598 44.5455 6.64773 45.0455 6.64773C45.1591 6.64773 45.286 6.65341 45.4261 6.66477C45.5701 6.67235 45.6894 6.68561 45.7841 6.70455V8.59659C45.697 8.56629 45.5587 8.53977 45.3693 8.51705C45.1837 8.49053 45.0038 8.47727 44.8295 8.47727C44.4545 8.47727 44.1174 8.55871 43.8182 8.72159C43.5227 8.88068 43.2898 9.10227 43.1193 9.38636C42.9489 9.67045 42.8636 9.99811 42.8636 10.3693V15.5H40.8068ZM54.5966 15.6705C53.8011 15.6705 53.1174 15.5265 52.5455 15.2386C51.9735 14.9508 51.5322 14.5625 51.2216 14.0739C50.9148 13.5814 50.7614 13.0265 50.7614 12.4091C50.7614 11.9432 50.8561 11.5303 51.0455 11.1705C51.2386 10.8106 51.5038 10.4773 51.8409 10.1705C52.1818 9.86364 52.5758 9.55871 53.0227 9.25568L55.0852 7.85227C55.3883 7.6553 55.6174 7.44697 55.7727 7.22727C55.9318 7.00758 56.0114 6.75 56.0114 6.45455C56.0114 6.20455 55.9053 5.9678 55.6932 5.74432C55.4848 5.52083 55.197 5.40909 54.8295 5.40909C54.5833 5.40909 54.3655 5.4678 54.1761 5.58523C53.9905 5.69886 53.8447 5.84848 53.7386 6.03409C53.6364 6.2197 53.5852 6.41667 53.5852 6.625C53.5852 6.87879 53.6553 7.13636 53.7955 7.39773C53.9394 7.65909 54.125 7.92992 54.3523 8.21023C54.5833 8.49053 54.8295 8.78788 55.0909 9.10227L60.5511 15.5H58.3239L53.7898 10.3068C53.4527 9.91288 53.1269 9.52462 52.8125 9.14205C52.5019 8.75947 52.2462 8.36174 52.0455 7.94886C51.8485 7.5322 51.75 7.08144 51.75 6.59659C51.75 6.04735 51.8769 5.55682 52.1307 5.125C52.3845 4.68939 52.7386 4.34659 53.1932 4.09659C53.6515 3.84659 54.1875 3.72159 54.8011 3.72159C55.4148 3.72159 55.9413 3.8428 56.3807 4.08523C56.8201 4.32765 57.1591 4.64962 57.3977 5.05114C57.6364 5.45265 57.7557 5.89015 57.7557 6.36364C57.7557 6.91288 57.6193 7.4053 57.3466 7.84091C57.0739 8.27273 56.6951 8.66477 56.2102 9.01705L53.858 10.7386C53.4716 11.0189 53.1951 11.303 53.0284 11.5909C52.8617 11.875 52.7784 12.1174 52.7784 12.3182C52.7784 12.625 52.8561 12.9034 53.0114 13.1534C53.1667 13.4034 53.3845 13.6042 53.6648 13.7557C53.9489 13.9034 54.2803 13.9773 54.6591 13.9773C55.0758 13.9773 55.4867 13.8845 55.892 13.6989C56.2973 13.5095 56.6667 13.2405 57 12.892C57.3333 12.5436 57.5985 12.1269 57.7955 11.642C57.9924 11.1534 58.0909 10.6117 58.0909 10.017H59.858C59.858 10.7519 59.7765 11.392 59.6136 11.9375C59.4508 12.4792 59.2405 12.9375 58.983 13.3125C58.7254 13.6837 58.4527 13.9811 58.1648 14.2045C58.0739 14.2689 57.9867 14.3333 57.9034 14.3977C57.8201 14.4621 57.733 14.5265 57.642 14.5909C57.233 14.9621 56.7538 15.2348 56.2045 15.4091C55.6591 15.5833 55.1231 15.6705 54.5966 15.6705ZM67.2827 15.5H65.0327L69.1293 3.86364H71.7315L75.8338 15.5H73.5838L70.4759 6.25H70.3849L67.2827 15.5ZM67.3565 10.9375H73.4929V12.6307H67.3565V10.9375ZM80.7074 13.6364V5.77273H82.4915V13.6364H80.7074ZM77.6676 10.5966V8.8125H85.5312V10.5966H77.6676ZM92.1009 15.5V3.86364H96.4645C97.3584 3.86364 98.1084 4.01894 98.7145 4.32955C99.3243 4.64015 99.7846 5.07576 100.095 5.63636C100.41 6.19318 100.567 6.8428 100.567 7.58523C100.567 8.33144 100.408 8.97917 100.089 9.52841C99.7751 10.0739 99.3111 10.4962 98.6974 10.7955C98.0838 11.0909 97.33 11.2386 96.4361 11.2386H93.3281V9.48864H96.152C96.6747 9.48864 97.1027 9.41667 97.4361 9.27273C97.7694 9.125 98.0156 8.91098 98.1747 8.63068C98.3376 8.34659 98.419 7.99811 98.419 7.58523C98.419 7.17235 98.3376 6.82008 98.1747 6.52841C98.0118 6.23295 97.7637 6.00947 97.4304 5.85795C97.0971 5.70265 96.6671 5.625 96.1406 5.625H94.2088V15.5H92.1009ZM98.1122 10.2273L100.993 15.5H98.6406L95.8111 10.2273H98.1122ZM104.928 15.6761C104.375 15.6761 103.876 15.5777 103.433 15.3807C102.994 15.1799 102.645 14.8845 102.388 14.4943C102.134 14.1042 102.007 13.6231 102.007 13.0511C102.007 12.5587 102.098 12.1515 102.28 11.8295C102.462 11.5076 102.71 11.25 103.024 11.0568C103.339 10.8636 103.693 10.7178 104.087 10.6193C104.484 10.517 104.895 10.4432 105.32 10.3977C105.831 10.3447 106.246 10.2973 106.564 10.2557C106.882 10.2102 107.113 10.142 107.257 10.0511C107.405 9.95644 107.479 9.81061 107.479 9.61364V9.57955C107.479 9.15152 107.352 8.82008 107.098 8.58523C106.844 8.35038 106.479 8.23295 106.001 8.23295C105.498 8.23295 105.098 8.3428 104.803 8.5625C104.511 8.7822 104.314 9.04167 104.212 9.34091L102.291 9.06818C102.443 8.53788 102.693 8.0947 103.041 7.73864C103.39 7.37879 103.816 7.10985 104.32 6.93182C104.823 6.75 105.38 6.65909 105.99 6.65909C106.411 6.65909 106.829 6.70833 107.246 6.80682C107.662 6.9053 108.043 7.06818 108.388 7.29545C108.732 7.51894 109.009 7.82386 109.217 8.21023C109.429 8.59659 109.536 9.07955 109.536 9.65909V15.5H107.558V14.3011H107.49C107.365 14.5436 107.189 14.7708 106.962 14.983C106.738 15.1913 106.456 15.3598 106.115 15.4886C105.778 15.6136 105.382 15.6761 104.928 15.6761ZM105.462 14.1648C105.875 14.1648 106.232 14.0833 106.536 13.9205C106.839 13.7538 107.071 13.5341 107.234 13.2614C107.401 12.9886 107.484 12.6913 107.484 12.3693V11.3409C107.42 11.3939 107.31 11.4432 107.155 11.4886C107.003 11.5341 106.833 11.5739 106.643 11.608C106.454 11.642 106.267 11.6723 106.081 11.6989C105.895 11.7254 105.734 11.7481 105.598 11.767C105.291 11.8087 105.017 11.8769 104.774 11.9716C104.532 12.0663 104.34 12.1989 104.2 12.3693C104.06 12.536 103.99 12.7519 103.99 13.017C103.99 13.3958 104.128 13.6818 104.405 13.875C104.681 14.0682 105.034 14.1648 105.462 14.1648ZM115.962 6.77273V8.36364H110.945V6.77273H115.962ZM112.183 4.68182H114.24V12.875C114.24 13.1515 114.282 13.3636 114.365 13.5114C114.452 13.6553 114.566 13.7538 114.706 13.8068C114.846 13.8598 115.001 13.8864 115.172 13.8864C115.301 13.8864 115.418 13.8769 115.524 13.858C115.634 13.839 115.717 13.822 115.774 13.8068L116.121 15.4148C116.011 15.4527 115.854 15.4943 115.649 15.5398C115.448 15.5852 115.202 15.6117 114.911 15.6193C114.395 15.6345 113.931 15.5568 113.518 15.3864C113.106 15.2121 112.778 14.9432 112.536 14.5795C112.297 14.2159 112.179 13.7614 112.183 13.2159V4.68182ZM117.682 15.5V6.77273H119.739V15.5H117.682ZM118.716 5.53409C118.39 5.53409 118.11 5.42614 117.875 5.21023C117.64 4.99053 117.523 4.72727 117.523 4.42045C117.523 4.10985 117.64 3.84659 117.875 3.63068C118.11 3.41098 118.39 3.30114 118.716 3.30114C119.045 3.30114 119.326 3.41098 119.557 3.63068C119.792 3.84659 119.909 4.10985 119.909 4.42045C119.909 4.72727 119.792 4.99053 119.557 5.21023C119.326 5.42614 119.045 5.53409 118.716 5.53409ZM123.911 10.3864V15.5H121.854V6.77273H123.82V8.25568H123.922C124.123 7.76705 124.443 7.37879 124.882 7.09091C125.325 6.80303 125.873 6.65909 126.524 6.65909C127.126 6.65909 127.651 6.78788 128.098 7.04545C128.549 7.30303 128.897 7.67614 129.143 8.16477C129.393 8.65341 129.517 9.24621 129.513 9.94318V15.5H127.456V10.2614C127.456 9.67803 127.304 9.22159 127.001 8.89205C126.702 8.5625 126.287 8.39773 125.757 8.39773C125.397 8.39773 125.077 8.47727 124.797 8.63636C124.52 8.79167 124.303 9.01705 124.143 9.3125C123.988 9.60795 123.911 9.96591 123.911 10.3864ZM135.399 18.9545C134.661 18.9545 134.026 18.8542 133.496 18.6534C132.965 18.4564 132.539 18.1913 132.217 17.858C131.895 17.5246 131.672 17.1553 131.547 16.75L133.399 16.3011C133.482 16.4716 133.604 16.6402 133.763 16.8068C133.922 16.9773 134.136 17.1174 134.405 17.2273C134.678 17.3409 135.02 17.3977 135.433 17.3977C136.017 17.3977 136.5 17.2557 136.882 16.9716C137.265 16.6913 137.456 16.2292 137.456 15.5852V13.9318H137.354C137.248 14.1439 137.092 14.3617 136.888 14.5852C136.687 14.8087 136.42 14.9962 136.087 15.1477C135.757 15.2992 135.342 15.375 134.842 15.375C134.172 15.375 133.564 15.2178 133.018 14.9034C132.477 14.5852 132.045 14.1117 131.723 13.483C131.405 12.8504 131.246 12.0587 131.246 11.108C131.246 10.1496 131.405 9.34091 131.723 8.68182C132.045 8.01894 132.479 7.51705 133.024 7.17614C133.57 6.83144 134.178 6.65909 134.848 6.65909C135.359 6.65909 135.78 6.74621 136.109 6.92045C136.443 7.09091 136.708 7.29735 136.905 7.53977C137.102 7.77841 137.251 8.00379 137.354 8.21591H137.467V6.77273H139.496V15.642C139.496 16.3883 139.318 17.0057 138.962 17.4943C138.606 17.983 138.119 18.3485 137.501 18.5909C136.884 18.8333 136.183 18.9545 135.399 18.9545ZM135.416 13.7614C135.852 13.7614 136.223 13.6553 136.53 13.4432C136.837 13.2311 137.07 12.9261 137.229 12.5284C137.388 12.1307 137.467 11.6534 137.467 11.0966C137.467 10.5473 137.388 10.0663 137.229 9.65341C137.073 9.24053 136.842 8.92045 136.536 8.69318C136.232 8.46212 135.859 8.34659 135.416 8.34659C134.958 8.34659 134.575 8.46591 134.268 8.70455C133.962 8.94318 133.731 9.27083 133.575 9.6875C133.42 10.1004 133.342 10.5701 133.342 11.0966C133.342 11.6307 133.42 12.0985 133.575 12.5C133.734 12.8977 133.967 13.2083 134.274 13.4318C134.585 13.6515 134.965 13.7614 135.416 13.7614Z" fill="white"></path>
  <path d="M6.5 23.5L8.4103 27.3707L12.6819 27.9914L9.59093 31.0043L10.3206 35.2586L6.5 33.25L2.6794 35.2586L3.40907 31.0043L0.318133 27.9914L4.5897 27.3707L6.5 23.5Z" fill="#F8D20C"></path>
  <path d="M24.5 23.5L26.4103 27.3707L30.6819 27.9914L27.5909 31.0043L28.3206 35.2586L24.5 33.25L20.6794 35.2586L21.4091 31.0043L18.3181 27.9914L22.5897 27.3707L24.5 23.5Z" fill="#F8D20C"></path>
  <path d="M42.5 23.5L44.4103 27.3707L48.6819 27.9914L45.5909 31.0043L46.3206 35.2586L42.5 33.25L38.6794 35.2586L39.4091 31.0043L36.3181 27.9914L40.5897 27.3707L42.5 23.5Z" fill="#F8D20C"></path>
  <path d="M60.5 23.5L62.4103 27.3707L66.6819 27.9914L63.5909 31.0043L64.3206 35.2586L60.5 33.25L56.6794 35.2586L57.4091 31.0043L54.3181 27.9914L58.5897 27.3707L60.5 23.5Z" fill="#F8D20C"></path>
  <path d="M78.5 23.5L80.4103 27.3707L84.6819 27.9914L81.5909 31.0043L82.3206 35.2586L78.5 33.25L74.6794 35.2586L75.4091 31.0043L72.3181 27.9914L76.5897 27.3707L78.5 23.5Z" fill="#F8D20C"></path>
  <path d="M1.40909 55.5V43.8636H8.38636V45.1136H2.81818V49.0455H7.86364V50.2955H2.81818V55.5H1.40909ZM13.1861 55.7045C12.633 55.7045 12.1312 55.6004 11.6804 55.392C11.2296 55.1799 10.8717 54.875 10.6065 54.4773C10.3414 54.0758 10.2088 53.5909 10.2088 53.0227C10.2088 52.5227 10.3073 52.1174 10.5043 51.8068C10.7012 51.4924 10.9645 51.2462 11.294 51.0682C11.6236 50.8902 11.9872 50.7576 12.3849 50.6705C12.7865 50.5795 13.1899 50.5076 13.5952 50.4545C14.1255 50.3864 14.5554 50.3352 14.8849 50.3011C15.2183 50.2633 15.4607 50.2008 15.6122 50.1136C15.7675 50.0265 15.8452 49.875 15.8452 49.6591V49.6136C15.8452 49.053 15.6918 48.6174 15.3849 48.3068C15.0819 47.9962 14.6217 47.8409 14.0043 47.8409C13.3641 47.8409 12.8622 47.9811 12.4986 48.2614C12.1349 48.5417 11.8793 48.8409 11.7315 49.1591L10.4588 48.7045C10.6861 48.1742 10.9891 47.7614 11.3679 47.4659C11.7505 47.1667 12.1671 46.9583 12.6179 46.8409C13.0724 46.7197 13.5194 46.6591 13.9588 46.6591C14.2391 46.6591 14.5611 46.6932 14.9247 46.7614C15.2921 46.8258 15.6463 46.9602 15.9872 47.1648C16.3319 47.3693 16.6179 47.678 16.8452 48.0909C17.0724 48.5038 17.1861 49.0568 17.1861 49.75V55.5H15.8452V54.3182H15.777C15.6861 54.5076 15.5346 54.7102 15.3224 54.9261C15.1103 55.142 14.8281 55.3258 14.4759 55.4773C14.1236 55.6288 13.6937 55.7045 13.1861 55.7045ZM13.3906 54.5C13.9209 54.5 14.3679 54.3958 14.7315 54.1875C15.099 53.9792 15.3755 53.7102 15.5611 53.3807C15.7505 53.0511 15.8452 52.7045 15.8452 52.3409V51.1136C15.7884 51.1818 15.6634 51.2443 15.4702 51.3011C15.2808 51.3542 15.0611 51.4015 14.8111 51.4432C14.5649 51.4811 14.3243 51.5152 14.0895 51.5455C13.8584 51.572 13.6709 51.5947 13.527 51.6136C13.1785 51.6591 12.8527 51.733 12.5497 51.8352C12.2505 51.9337 12.008 52.0833 11.8224 52.2841C11.6406 52.4811 11.5497 52.75 11.5497 53.0909C11.5497 53.5568 11.7221 53.9091 12.0668 54.1477C12.4152 54.3826 12.8565 54.5 13.3906 54.5ZM23.179 55.6818C22.3608 55.6818 21.6563 55.4886 21.0653 55.1023C20.4744 54.7159 20.0199 54.1837 19.7017 53.5057C19.3835 52.8277 19.2244 52.053 19.2244 51.1818C19.2244 50.2955 19.3873 49.5133 19.7131 48.8352C20.0426 48.1534 20.5009 47.6212 21.0881 47.2386C21.679 46.8523 22.3684 46.6591 23.1562 46.6591C23.7699 46.6591 24.3229 46.7727 24.8153 47C25.3078 47.2273 25.7112 47.5455 26.0256 47.9545C26.34 48.3636 26.535 48.8409 26.6108 49.3864H25.2699C25.1676 48.9886 24.9403 48.6364 24.5881 48.3295C24.2396 48.0189 23.7699 47.8636 23.179 47.8636C22.6563 47.8636 22.1979 48 21.804 48.2727C21.4138 48.5417 21.1089 48.9223 20.8892 49.4148C20.6733 49.9034 20.5653 50.4773 20.5653 51.1364C20.5653 51.8106 20.6714 52.3977 20.8835 52.8977C21.0994 53.3977 21.4025 53.786 21.7926 54.0625C22.1866 54.339 22.6487 54.4773 23.179 54.4773C23.5275 54.4773 23.8438 54.4167 24.1278 54.2955C24.4119 54.1742 24.6525 54 24.8494 53.7727C25.0464 53.5455 25.1866 53.2727 25.2699 52.9545H26.6108C26.535 53.4697 26.3475 53.9337 26.0483 54.3466C25.7528 54.7557 25.3608 55.0814 24.8722 55.3239C24.3873 55.5625 23.8229 55.6818 23.179 55.6818ZM32.2301 55.6818C31.3892 55.6818 30.6638 55.4962 30.054 55.125C29.4479 54.75 28.9801 54.2273 28.6506 53.5568C28.3248 52.8826 28.1619 52.0985 28.1619 51.2045C28.1619 50.3106 28.3248 49.5227 28.6506 48.8409C28.9801 48.1553 29.4384 47.6212 30.0256 47.2386C30.6165 46.8523 31.3059 46.6591 32.0938 46.6591C32.5483 46.6591 32.9972 46.7348 33.4403 46.8864C33.8835 47.0379 34.2869 47.2841 34.6506 47.625C35.0142 47.9621 35.304 48.4091 35.5199 48.9659C35.7358 49.5227 35.8438 50.2083 35.8438 51.0227V51.5909H29.1165V50.4318H34.4801C34.4801 49.9394 34.3816 49.5 34.1847 49.1136C33.9915 48.7273 33.715 48.4223 33.3551 48.1989C32.9991 47.9754 32.5786 47.8636 32.0938 47.8636C31.5597 47.8636 31.0975 47.9962 30.7074 48.2614C30.321 48.5227 30.0237 48.8636 29.8153 49.2841C29.607 49.7045 29.5028 50.1553 29.5028 50.6364V51.4091C29.5028 52.0682 29.6165 52.6269 29.8438 53.0852C30.0748 53.5398 30.3949 53.8864 30.804 54.125C31.2131 54.3598 31.6884 54.4773 32.2301 54.4773C32.5824 54.4773 32.9006 54.428 33.1847 54.3295C33.4725 54.2273 33.7206 54.0758 33.929 53.875C34.1373 53.6705 34.2983 53.4167 34.4119 53.1136L35.7074 53.4773C35.571 53.9167 35.3419 54.303 35.0199 54.6364C34.6979 54.9659 34.3002 55.2235 33.8267 55.4091C33.3532 55.5909 32.821 55.6818 32.2301 55.6818ZM38.0653 55.5V43.8636H39.4062V48.1591H39.5199C39.6184 48.0076 39.7547 47.8144 39.929 47.5795C40.107 47.3409 40.3608 47.1288 40.6903 46.9432C41.0237 46.7538 41.4744 46.6591 42.0426 46.6591C42.7775 46.6591 43.4252 46.8428 43.9858 47.2102C44.5464 47.5777 44.9839 48.0985 45.2983 48.7727C45.6127 49.447 45.7699 50.2424 45.7699 51.1591C45.7699 52.0833 45.6127 52.8845 45.2983 53.5625C44.9839 54.2367 44.5483 54.7595 43.9915 55.1307C43.4347 55.4981 42.7926 55.6818 42.0653 55.6818C41.5047 55.6818 41.0559 55.589 40.7188 55.4034C40.3816 55.214 40.1222 55 39.9403 54.7614C39.7585 54.5189 39.6184 54.3182 39.5199 54.1591H39.3608V55.5H38.0653ZM39.3835 51.1364C39.3835 51.7955 39.4801 52.3769 39.6733 52.8807C39.8665 53.3807 40.1487 53.7727 40.5199 54.0568C40.8911 54.3371 41.3456 54.4773 41.8835 54.4773C42.4441 54.4773 42.9119 54.3295 43.2869 54.0341C43.6657 53.7348 43.9498 53.3333 44.1392 52.8295C44.3324 52.322 44.429 51.7576 44.429 51.1364C44.429 50.5227 44.3343 49.9697 44.1449 49.4773C43.9593 48.9811 43.6771 48.589 43.2983 48.3011C42.9233 48.0095 42.4517 47.8636 41.8835 47.8636C41.3381 47.8636 40.8797 48.0019 40.5085 48.2784C40.1373 48.5511 39.857 48.9337 39.6676 49.4261C39.4782 49.9148 39.3835 50.4848 39.3835 51.1364ZM51.3665 55.6818C50.5786 55.6818 49.8873 55.4943 49.2926 55.1193C48.7017 54.7443 48.2396 54.2197 47.9062 53.5455C47.5767 52.8712 47.4119 52.0833 47.4119 51.1818C47.4119 50.2727 47.5767 49.4792 47.9062 48.8011C48.2396 48.1231 48.7017 47.5966 49.2926 47.2216C49.8873 46.8466 50.5786 46.6591 51.3665 46.6591C52.1544 46.6591 52.8438 46.8466 53.4347 47.2216C54.0294 47.5966 54.4915 48.1231 54.821 48.8011C55.1544 49.4792 55.321 50.2727 55.321 51.1818C55.321 52.0833 55.1544 52.8712 54.821 53.5455C54.4915 54.2197 54.0294 54.7443 53.4347 55.1193C52.8438 55.4943 52.1544 55.6818 51.3665 55.6818ZM51.3665 54.4773C51.965 54.4773 52.4574 54.3239 52.8438 54.017C53.2301 53.7102 53.5161 53.3068 53.7017 52.8068C53.8873 52.3068 53.9801 51.7652 53.9801 51.1818C53.9801 50.5985 53.8873 50.0549 53.7017 49.5511C53.5161 49.0473 53.2301 48.6402 52.8438 48.3295C52.4574 48.0189 51.965 47.8636 51.3665 47.8636C50.768 47.8636 50.2756 48.0189 49.8892 48.3295C49.5028 48.6402 49.2169 49.0473 49.0312 49.5511C48.8456 50.0549 48.7528 50.5985 48.7528 51.1818C48.7528 51.7652 48.8456 52.3068 49.0312 52.8068C49.2169 53.3068 49.5028 53.7102 49.8892 54.017C50.2756 54.3239 50.768 54.4773 51.3665 54.4773ZM60.9134 55.6818C60.1255 55.6818 59.4342 55.4943 58.8395 55.1193C58.2486 54.7443 57.7865 54.2197 57.4531 53.5455C57.1236 52.8712 56.9588 52.0833 56.9588 51.1818C56.9588 50.2727 57.1236 49.4792 57.4531 48.8011C57.7865 48.1231 58.2486 47.5966 58.8395 47.2216C59.4342 46.8466 60.1255 46.6591 60.9134 46.6591C61.7012 46.6591 62.3906 46.8466 62.9815 47.2216C63.5762 47.5966 64.0384 48.1231 64.3679 48.8011C64.7012 49.4792 64.8679 50.2727 64.8679 51.1818C64.8679 52.0833 64.7012 52.8712 64.3679 53.5455C64.0384 54.2197 63.5762 54.7443 62.9815 55.1193C62.3906 55.4943 61.7012 55.6818 60.9134 55.6818ZM60.9134 54.4773C61.5118 54.4773 62.0043 54.3239 62.3906 54.017C62.777 53.7102 63.063 53.3068 63.2486 52.8068C63.4342 52.3068 63.527 51.7652 63.527 51.1818C63.527 50.5985 63.4342 50.0549 63.2486 49.5511C63.063 49.0473 62.777 48.6402 62.3906 48.3295C62.0043 48.0189 61.5118 47.8636 60.9134 47.8636C60.3149 47.8636 59.8224 48.0189 59.4361 48.3295C59.0497 48.6402 58.7637 49.0473 58.5781 49.5511C58.3925 50.0549 58.2997 50.5985 58.2997 51.1818C58.2997 51.7652 58.3925 52.3068 58.5781 52.8068C58.7637 53.3068 59.0497 53.7102 59.4361 54.017C59.8224 54.3239 60.3149 54.4773 60.9134 54.4773ZM68.1648 52.3182L68.142 50.6591H68.4148L72.233 46.7727H73.892L69.8239 50.8864H69.7102L68.1648 52.3182ZM66.9148 55.5V43.8636H68.2557V55.5H66.9148ZM72.4602 55.5L69.0511 51.1818L70.0057 50.25L74.1648 55.5H72.4602ZM77.6179 53.9091L77.527 54.5227C77.4626 54.9545 77.3641 55.4167 77.2315 55.9091C77.1027 56.4015 76.9683 56.8655 76.8281 57.3011C76.688 57.7367 76.5724 58.0833 76.4815 58.3409H75.4588C75.508 58.0985 75.5724 57.7784 75.652 57.3807C75.7315 56.983 75.8111 56.5379 75.8906 56.0455C75.974 55.5568 76.0421 55.0568 76.0952 54.5455L76.1634 53.9091H77.6179ZM92.7386 47.5C92.6136 47.1174 92.4489 46.7746 92.2443 46.4716C92.0436 46.1648 91.803 45.9034 91.5227 45.6875C91.2462 45.4716 90.9318 45.3068 90.5795 45.1932C90.2273 45.0795 89.8409 45.0227 89.4205 45.0227C88.7311 45.0227 88.1042 45.2008 87.5398 45.5568C86.9754 45.9129 86.5265 46.4375 86.1932 47.1307C85.8598 47.8239 85.6932 48.6742 85.6932 49.6818C85.6932 50.6894 85.8617 51.5398 86.1989 52.233C86.536 52.9261 86.9924 53.4508 87.5682 53.8068C88.1439 54.1629 88.7917 54.3409 89.5114 54.3409C90.178 54.3409 90.7652 54.1989 91.2727 53.9148C91.7841 53.6269 92.1818 53.2216 92.4659 52.6989C92.7538 52.1723 92.8977 51.553 92.8977 50.8409L93.3295 50.9318H89.8295V49.6818H94.2614V50.9318C94.2614 51.8902 94.0568 52.7235 93.6477 53.4318C93.2424 54.1402 92.6818 54.6894 91.9659 55.0795C91.2538 55.4659 90.4356 55.6591 89.5114 55.6591C88.4811 55.6591 87.5758 55.4167 86.7955 54.9318C86.0189 54.447 85.4129 53.7576 84.9773 52.8636C84.5455 51.9697 84.3295 50.9091 84.3295 49.6818C84.3295 48.7614 84.4527 47.9337 84.6989 47.1989C84.9489 46.4602 85.3011 45.8314 85.7557 45.3125C86.2102 44.7936 86.7481 44.3958 87.3693 44.1193C87.9905 43.8428 88.6742 43.7045 89.4205 43.7045C90.0341 43.7045 90.6061 43.7973 91.1364 43.983C91.6705 44.1648 92.1458 44.4242 92.5625 44.7614C92.983 45.0947 93.3333 45.4943 93.6136 45.9602C93.8939 46.4223 94.0871 46.9356 94.1932 47.5H92.7386ZM100.038 55.6818C99.2505 55.6818 98.5592 55.4943 97.9645 55.1193C97.3736 54.7443 96.9115 54.2197 96.5781 53.5455C96.2486 52.8712 96.0838 52.0833 96.0838 51.1818C96.0838 50.2727 96.2486 49.4792 96.5781 48.8011C96.9115 48.1231 97.3736 47.5966 97.9645 47.2216C98.5592 46.8466 99.2505 46.6591 100.038 46.6591C100.826 46.6591 101.516 46.8466 102.107 47.2216C102.701 47.5966 103.163 48.1231 103.493 48.8011C103.826 49.4792 103.993 50.2727 103.993 51.1818C103.993 52.0833 103.826 52.8712 103.493 53.5455C103.163 54.2197 102.701 54.7443 102.107 55.1193C101.516 55.4943 100.826 55.6818 100.038 55.6818ZM100.038 54.4773C100.637 54.4773 101.129 54.3239 101.516 54.017C101.902 53.7102 102.188 53.3068 102.374 52.8068C102.559 52.3068 102.652 51.7652 102.652 51.1818C102.652 50.5985 102.559 50.0549 102.374 49.5511C102.188 49.0473 101.902 48.6402 101.516 48.3295C101.129 48.0189 100.637 47.8636 100.038 47.8636C99.4399 47.8636 98.9474 48.0189 98.5611 48.3295C98.1747 48.6402 97.8887 49.0473 97.7031 49.5511C97.5175 50.0549 97.4247 50.5985 97.4247 51.1818C97.4247 51.7652 97.5175 52.3068 97.7031 52.8068C97.8887 53.3068 98.1747 53.7102 98.5611 54.017C98.9474 54.3239 99.4399 54.4773 100.038 54.4773ZM109.585 55.6818C108.797 55.6818 108.106 55.4943 107.511 55.1193C106.92 54.7443 106.458 54.2197 106.125 53.5455C105.795 52.8712 105.631 52.0833 105.631 51.1818C105.631 50.2727 105.795 49.4792 106.125 48.8011C106.458 48.1231 106.92 47.5966 107.511 47.2216C108.106 46.8466 108.797 46.6591 109.585 46.6591C110.373 46.6591 111.063 46.8466 111.653 47.2216C112.248 47.5966 112.71 48.1231 113.04 48.8011C113.373 49.4792 113.54 50.2727 113.54 51.1818C113.54 52.0833 113.373 52.8712 113.04 53.5455C112.71 54.2197 112.248 54.7443 111.653 55.1193C111.063 55.4943 110.373 55.6818 109.585 55.6818ZM109.585 54.4773C110.184 54.4773 110.676 54.3239 111.062 54.017C111.449 53.7102 111.735 53.3068 111.92 52.8068C112.106 52.3068 112.199 51.7652 112.199 51.1818C112.199 50.5985 112.106 50.0549 111.92 49.5511C111.735 49.0473 111.449 48.6402 111.062 48.3295C110.676 48.0189 110.184 47.8636 109.585 47.8636C108.987 47.8636 108.494 48.0189 108.108 48.3295C107.722 48.6402 107.436 49.0473 107.25 49.5511C107.064 50.0549 106.972 50.5985 106.972 51.1818C106.972 51.7652 107.064 52.3068 107.25 52.8068C107.436 53.3068 107.722 53.7102 108.108 54.017C108.494 54.3239 108.987 54.4773 109.585 54.4773ZM119.109 58.9545C118.462 58.9545 117.905 58.8712 117.439 58.7045C116.973 58.5417 116.585 58.3258 116.274 58.0568C115.967 57.7917 115.723 57.5076 115.541 57.2045L116.609 56.4545C116.731 56.6136 116.884 56.7955 117.07 57C117.255 57.2083 117.509 57.3883 117.831 57.5398C118.157 57.6951 118.583 57.7727 119.109 57.7727C119.814 57.7727 120.395 57.6023 120.854 57.2614C121.312 56.9205 121.541 56.3864 121.541 55.6591V53.8864H121.428C121.329 54.0455 121.189 54.2424 121.007 54.4773C120.829 54.7083 120.571 54.9148 120.234 55.0966C119.901 55.2746 119.45 55.3636 118.882 55.3636C118.178 55.3636 117.545 55.197 116.984 54.8636C116.428 54.5303 115.986 54.0455 115.661 53.4091C115.339 52.7727 115.178 52 115.178 51.0909C115.178 50.197 115.335 49.4186 115.649 48.7557C115.964 48.089 116.401 47.5739 116.962 47.2102C117.522 46.8428 118.17 46.6591 118.905 46.6591C119.473 46.6591 119.924 46.7538 120.257 46.9432C120.594 47.1288 120.852 47.3409 121.03 47.5795C121.212 47.8144 121.352 48.0076 121.45 48.1591H121.587V46.7727H122.882V55.75C122.882 56.5 122.712 57.1098 122.371 57.5795C122.034 58.053 121.579 58.3996 121.007 58.6193C120.439 58.8428 119.806 58.9545 119.109 58.9545ZM119.064 54.1591C119.602 54.1591 120.056 54.036 120.428 53.7898C120.799 53.5436 121.081 53.1894 121.274 52.7273C121.467 52.2652 121.564 51.7121 121.564 51.0682C121.564 50.4394 121.469 49.8845 121.28 49.4034C121.09 48.9223 120.81 48.5455 120.439 48.2727C120.068 48 119.609 47.8636 119.064 47.8636C118.496 47.8636 118.022 48.0076 117.643 48.2955C117.268 48.5833 116.986 48.9697 116.797 49.4545C116.611 49.9394 116.518 50.4773 116.518 51.0682C116.518 51.6742 116.613 52.2102 116.803 52.6761C116.996 53.1383 117.28 53.5019 117.655 53.767C118.034 54.0284 118.503 54.1591 119.064 54.1591ZM126.678 43.8636V55.5H125.337V43.8636H126.678ZM132.793 55.6818C131.952 55.6818 131.226 55.4962 130.616 55.125C130.01 54.75 129.543 54.2273 129.213 53.5568C128.887 52.8826 128.724 52.0985 128.724 51.2045C128.724 50.3106 128.887 49.5227 129.213 48.8409C129.543 48.1553 130.001 47.6212 130.588 47.2386C131.179 46.8523 131.868 46.6591 132.656 46.6591C133.111 46.6591 133.56 46.7348 134.003 46.8864C134.446 47.0379 134.849 47.2841 135.213 47.625C135.577 47.9621 135.866 48.4091 136.082 48.9659C136.298 49.5227 136.406 50.2083 136.406 51.0227V51.5909H129.679V50.4318H135.043C135.043 49.9394 134.944 49.5 134.747 49.1136C134.554 48.7273 134.277 48.4223 133.918 48.1989C133.562 47.9754 133.141 47.8636 132.656 47.8636C132.122 47.8636 131.66 47.9962 131.27 48.2614C130.884 48.5227 130.586 48.8636 130.378 49.2841C130.17 49.7045 130.065 50.1553 130.065 50.6364V51.4091C130.065 52.0682 130.179 52.6269 130.406 53.0852C130.637 53.5398 130.957 53.8864 131.366 54.125C131.776 54.3598 132.251 54.4773 132.793 54.4773C133.145 54.4773 133.463 54.428 133.747 54.3295C134.035 54.2273 134.283 54.0758 134.491 53.875C134.7 53.6705 134.861 53.4167 134.974 53.1136L136.27 53.4773C136.134 53.9167 135.904 54.303 135.582 54.6364C135.26 54.9659 134.863 55.2235 134.389 55.4091C133.916 55.5909 133.384 55.6818 132.793 55.6818ZM140.446 53.9091L140.355 54.5227C140.291 54.9545 140.192 55.4167 140.06 55.9091C139.931 56.4015 139.796 56.8655 139.656 57.3011C139.516 57.7367 139.401 58.0833 139.31 58.3409H138.287C138.336 58.0985 138.401 57.7784 138.48 57.3807C138.56 56.983 138.639 56.5379 138.719 56.0455C138.802 55.5568 138.87 55.0568 138.923 54.5455L138.991 53.9091H140.446ZM150.726 55.6591C149.961 55.6591 149.302 55.5189 148.749 55.2386C148.196 54.9583 147.769 54.5739 147.47 54.0852C147.171 53.5966 147.021 53.0379 147.021 52.4091C147.021 51.9242 147.124 51.4943 147.328 51.1193C147.536 50.7405 147.822 50.3902 148.186 50.0682C148.554 49.7424 148.976 49.4167 149.453 49.0909L151.135 47.8409C151.464 47.625 151.728 47.3939 151.925 47.1477C152.125 46.9015 152.226 46.5795 152.226 46.1818C152.226 45.8864 152.095 45.6004 151.834 45.3239C151.576 45.0473 151.237 44.9091 150.817 44.9091C150.521 44.9091 150.26 44.9848 150.033 45.1364C149.809 45.2841 149.633 45.4735 149.504 45.7045C149.379 45.9318 149.317 46.1667 149.317 46.4091C149.317 46.6818 149.391 46.9583 149.538 47.2386C149.69 47.5152 149.881 47.7992 150.112 48.0909C150.347 48.3788 150.589 48.6742 150.839 48.9773L156.18 55.5H154.567L150.158 50.1818C149.749 49.6894 149.377 49.2424 149.044 48.8409C148.711 48.4394 148.446 48.0436 148.249 47.6534C148.052 47.2633 147.953 46.8409 147.953 46.3864C147.953 45.8636 148.069 45.4053 148.3 45.0114C148.535 44.6136 148.862 44.3049 149.283 44.0852C149.707 43.8617 150.203 43.75 150.771 43.75C151.355 43.75 151.857 43.8636 152.277 44.0909C152.697 44.3144 153.021 44.6117 153.249 44.983C153.476 45.3504 153.589 45.75 153.589 46.1818C153.589 46.7386 153.451 47.2216 153.175 47.6307C152.898 48.0398 152.521 48.4205 152.044 48.7727L149.726 50.5C149.203 50.8864 148.849 51.2614 148.663 51.625C148.478 51.9886 148.385 52.25 148.385 52.4091C148.385 52.7727 148.48 53.1117 148.669 53.4261C148.858 53.7405 149.125 53.9943 149.47 54.1875C149.815 54.3807 150.218 54.4773 150.68 54.4773C151.12 54.4773 151.548 54.3845 151.964 54.1989C152.381 54.0095 152.758 53.7367 153.095 53.3807C153.436 53.0246 153.705 52.5966 153.902 52.0966C154.103 51.5966 154.203 51.0341 154.203 50.4091H155.499C155.499 51.1818 155.41 51.8125 155.232 52.3011C155.054 52.7898 154.853 53.1723 154.629 53.4489C154.406 53.7254 154.226 53.9318 154.089 54.0682C154.044 54.125 154.002 54.1818 153.964 54.2386C153.927 54.2955 153.885 54.3523 153.839 54.4091C153.464 54.8295 152.991 55.1439 152.419 55.3523C151.847 55.5568 151.283 55.6591 150.726 55.6591ZM162.347 55.5V43.8636H166.415C167.225 43.8636 167.894 44.0038 168.42 44.2841C168.947 44.5606 169.339 44.9337 169.597 45.4034C169.854 45.8693 169.983 46.3864 169.983 46.9545C169.983 47.4545 169.894 47.8674 169.716 48.1932C169.542 48.5189 169.311 48.7765 169.023 48.9659C168.739 49.1553 168.43 49.2955 168.097 49.3864V49.5C168.453 49.5227 168.811 49.6477 169.17 49.875C169.53 50.1023 169.831 50.428 170.074 50.8523C170.316 51.2765 170.438 51.7955 170.438 52.4091C170.438 52.9924 170.305 53.517 170.04 53.983C169.775 54.4489 169.356 54.8182 168.784 55.0909C168.212 55.3636 167.468 55.5 166.551 55.5H162.347ZM163.756 54.25H166.551C167.472 54.25 168.125 54.072 168.511 53.7159C168.902 53.3561 169.097 52.9205 169.097 52.4091C169.097 52.0152 168.996 51.6515 168.795 51.3182C168.595 50.9811 168.309 50.7121 167.938 50.5114C167.566 50.3068 167.127 50.2045 166.619 50.2045H163.756V54.25ZM163.756 48.9773H166.369C166.794 48.9773 167.176 48.8939 167.517 48.7273C167.862 48.5606 168.134 48.3258 168.335 48.0227C168.54 47.7197 168.642 47.3636 168.642 46.9545C168.642 46.4432 168.464 46.0095 168.108 45.6534C167.752 45.2936 167.188 45.1136 166.415 45.1136H163.756V48.9773ZM172.753 55.5V43.8636H176.821C177.632 43.8636 178.3 44.0038 178.827 44.2841C179.353 44.5606 179.745 44.9337 180.003 45.4034C180.26 45.8693 180.389 46.3864 180.389 46.9545C180.389 47.4545 180.3 47.8674 180.122 48.1932C179.948 48.5189 179.717 48.7765 179.429 48.9659C179.145 49.1553 178.836 49.2955 178.503 49.3864V49.5C178.859 49.5227 179.217 49.6477 179.577 49.875C179.937 50.1023 180.238 50.428 180.48 50.8523C180.723 51.2765 180.844 51.7955 180.844 52.4091C180.844 52.9924 180.711 53.517 180.446 53.983C180.181 54.4489 179.762 54.8182 179.19 55.0909C178.618 55.3636 177.874 55.5 176.957 55.5H172.753ZM174.162 54.25H176.957C177.878 54.25 178.531 54.072 178.918 53.7159C179.308 53.3561 179.503 52.9205 179.503 52.4091C179.503 52.0152 179.402 51.6515 179.202 51.3182C179.001 50.9811 178.715 50.7121 178.344 50.5114C177.973 50.3068 177.533 50.2045 177.026 50.2045H174.162V54.25ZM174.162 48.9773H176.776C177.2 48.9773 177.582 48.8939 177.923 48.7273C178.268 48.5606 178.541 48.3258 178.741 48.0227C178.946 47.7197 179.048 47.3636 179.048 46.9545C179.048 46.4432 178.87 46.0095 178.514 45.6534C178.158 45.2936 177.594 45.1136 176.821 45.1136H174.162V48.9773ZM183.159 55.5V43.8636H187.227C188.038 43.8636 188.706 44.0038 189.233 44.2841C189.759 44.5606 190.152 44.9337 190.409 45.4034C190.667 45.8693 190.795 46.3864 190.795 46.9545C190.795 47.4545 190.706 47.8674 190.528 48.1932C190.354 48.5189 190.123 48.7765 189.835 48.9659C189.551 49.1553 189.242 49.2955 188.909 49.3864V49.5C189.265 49.5227 189.623 49.6477 189.983 49.875C190.343 50.1023 190.644 50.428 190.886 50.8523C191.129 51.2765 191.25 51.7955 191.25 52.4091C191.25 52.9924 191.117 53.517 190.852 53.983C190.587 54.4489 190.169 54.8182 189.597 55.0909C189.025 55.3636 188.28 55.5 187.364 55.5H183.159ZM184.568 54.25H187.364C188.284 54.25 188.938 54.072 189.324 53.7159C189.714 53.3561 189.909 52.9205 189.909 52.4091C189.909 52.0152 189.809 51.6515 189.608 51.3182C189.407 50.9811 189.121 50.7121 188.75 50.5114C188.379 50.3068 187.939 50.2045 187.432 50.2045H184.568V54.25ZM184.568 48.9773H187.182C187.606 48.9773 187.989 48.8939 188.33 48.7273C188.674 48.5606 188.947 48.3258 189.148 48.0227C189.352 47.7197 189.455 47.3636 189.455 46.9545C189.455 46.4432 189.277 46.0095 188.92 45.6534C188.564 45.2936 188 45.1136 187.227 45.1136H184.568V48.9773Z" fill="white"></path>
</svg>
