<?xml version="1.0" encoding="utf-8"?>
<!-- Generator: Adobe Illustrator 24.2.3, SVG Export Plug-In . SVG Version: 6.00 Build 0)  -->
<svg version="1.1" id="Layer_1" xmlns="http://www.w3.org/2000/svg" xmlns:xlink="http://www.w3.org/1999/xlink" x="0px" y="0px"
	 viewBox="0 0 211.6 173.4" style="enable-background:new 0 0 211.6 173.4;" xml:space="preserve">
<style type="text/css">
	.st0{opacity:0.34;fill:url(#SVGID_1_);enable-background:new    ;}
	.st1{fill:url(#SVGID_2_);}
	.st2{fill:url(#SVGID_3_);}
	.st3{fill:url(#SVGID_4_);}
	.st4{opacity:0.55;}
	.st5{fill:#CC5605;}
	.st6{fill:url(#SVGID_5_);}
	.st7{fill:url(#SVGID_6_);}
	.st8{fill:url(#SVGID_7_);}
</style>
<g>
	
		<linearGradient id="SVGID_1_" gradientUnits="userSpaceOnUse" x1="101.6245" y1="98.7557" x2="130.0982" y2="98.7557" gradientTransform="matrix(1 0 0 -1 0 176)">
		<stop  offset="0" style="stop-color:#F4AF06"/>
		<stop  offset="1" style="stop-color:#FF6200"/>
	</linearGradient>
	<circle class="st0" cx="115.9" cy="77.2" r="14.2"/>
	
		<linearGradient id="SVGID_2_" gradientUnits="userSpaceOnUse" x1="35.8594" y1="51.8867" x2="200.5549" y2="148.3706" gradientTransform="matrix(1 0 0 -1 0 176)">
		<stop  offset="0" style="stop-color:#F4AF06"/>
		<stop  offset="1" style="stop-color:#FF6200"/>
	</linearGradient>
	<path class="st1" d="M115.9,40.9c-20,0-36.3,16.3-36.3,36.3H89c0-14.9,12-26.9,26.9-26.9s26.9,12,26.9,26.9s-12,26.9-26.9,26.9v9.5
		c20,0,36.3-16.3,36.3-36.3S135.9,40.9,115.9,40.9z"/>
	
		<linearGradient id="SVGID_3_" gradientUnits="userSpaceOnUse" x1="36.2907" y1="51.7246" x2="198.6923" y2="146.8646" gradientTransform="matrix(1 0 0 -1 0 176)">
		<stop  offset="0" style="stop-color:#F4AF06"/>
		<stop  offset="1" style="stop-color:#FF6200"/>
	</linearGradient>
	<path class="st2" d="M115.2,26.3c-28.5,0-51.7,23.2-51.7,51.7h9.3c0-23.5,19-42.4,42.4-42.4c23.5,0,42.4,19,42.4,42.4
		s-19,42.4-42.4,42.4v9.3c28.5,0,51.7-23.2,51.7-51.7S143.7,26.3,115.2,26.3z"/>
	
		<linearGradient id="SVGID_4_" gradientUnits="userSpaceOnUse" x1="35.9061" y1="51.8069" x2="200.6016" y2="148.2908" gradientTransform="matrix(1 0 0 -1 0 176)">
		<stop  offset="0" style="stop-color:#F4AF06"/>
		<stop  offset="1" style="stop-color:#FF6200"/>
	</linearGradient>
	<path class="st3" d="M115.9,12c-36.1,0-65.2,29.3-65.2,65.2h9.5c0-30.8,25-55.9,55.9-55.9c30.8,0,55.9,25,55.9,55.9
		s-25,55.9-55.9,55.9v9.5c36.1,0,65.2-29.3,65.2-65.2S151.9,12,115.9,12z"/>
	<g class="st4">
		<path class="st5" d="M115.9,104.3v9.5c1.4,0,2.7-0.1,4.1-0.3V104C118.6,104.1,117.2,104.3,115.9,104.3z M79.5,77.2H89
			c0-1.1,0.1-2.3,0.3-3.4h-9.5C79.5,75.1,79.5,76.2,79.5,77.2z"/>
		<path class="st5" d="M63.5,74c-0.1,1.1-0.1,2.3-0.1,3.4h9.5c0-1.1,0-2.3,0.1-3.4H63.5z M115.9,120.3v9.5c1.4,0,2.7,0,4.1-0.1v-9.5
			C118.6,120.3,117.2,120.3,115.9,120.3z"/>
		<path class="st5" d="M115.9,133.2v9.5c1.4,0,2.7,0,4.1-0.1V133C118.6,133.2,117.2,133.2,115.9,133.2z M50.6,74
			c0,1.1-0.1,2.3-0.1,3.4h9.5c0-1.1,0-2.3,0.1-3.4H50.6z"/>
	</g>
	
		<linearGradient id="SVGID_5_" gradientUnits="userSpaceOnUse" x1="20.6649" y1="22.3461" x2="132.4066" y2="95.4943" gradientTransform="matrix(1 0 0 -1 0 176)">
		<stop  offset="0" style="stop-color:#16186E"/>
		<stop  offset="1" style="stop-color:#0044AA"/>
	</linearGradient>
	<polygon class="st6" points="115.9,77.2 115.9,161.4 106.4,154.8 106.4,86.7 37.1,86.7 30.4,77.2 	"/>
	
		<linearGradient id="SVGID_6_" gradientUnits="userSpaceOnUse" x1="21.6382" y1="20.8594" x2="133.3798" y2="94.0075" gradientTransform="matrix(1 0 0 -1 0 176)">
		<stop  offset="0" style="stop-color:#16186E"/>
		<stop  offset="1" style="stop-color:#0044AA"/>
	</linearGradient>
	<polygon class="st7" points="99.7,92.1 99.7,161.4 90.3,154.8 90.3,101.6 37.1,101.6 30.4,92.1 	"/>
	
		<linearGradient id="SVGID_7_" gradientUnits="userSpaceOnUse" x1="22.8877" y1="18.9505" x2="134.6295" y2="92.0987" gradientTransform="matrix(1 0 0 -1 0 176)">
		<stop  offset="0" style="stop-color:#16186E"/>
		<stop  offset="1" style="stop-color:#0044AA"/>
	</linearGradient>
	<polygon class="st8" points="84.3,107.6 84.3,161.4 74.8,154.8 74.8,117 37.1,117 30.4,107.6 	"/>
</g>
</svg>
